{"title":"Larry Crowne (2011) BRRip NL subs DutchReleaseTeam [Komedie&amp;","uid":6781762,"size":741004390,"categoryP":"video","categoryS":"movies","magnet":"?xt=urn:btih:847cdff844c08f32387193e25004fbd5240362dd&amp;dn=Larry+Crowne+%282011%29+BRRip+NL+subs+DutchReleaseTeam+%5BKomedie%26amp%3B&amp;tr=udp%3A%2F%2Ftracker.openbittorrent.com%3A80&amp;tr=udp%3A%2F%2Fopen.demonii.com%3A1337&amp;tr=udp%3A%2F%2Ftracker.coppersurfer.tk%3A6969&amp;tr=udp%3A%2F%2Fexodus.desync.com%3A6969","seeders":3,"leechers":1,"uploader":"Koedje","files":-1,"time":1319928017,"description":" &lt;a href=&quot;http://img97.imageshack.us/img97/4672/larrycrowneh.jpg&quot; rel=&quot;nofollow&quot; target=&quot;_NEW&quot;&gt;http://img97.imageshack.us/img97/4672/larrycrowneh.jpg&lt;/a&gt;\n\n\nVerenigde Staten\nKomedie / Drama\n99 minuten\n\ngeregisseerd door Tom Hanks\nmet Tom Hanks, Julia Roberts en Pam Grier\n\nWanneer de sympathieke Larry Crowne zonder reden ontslagen wordt in de supermarkt waar hij werkt, beslist hij dat het tijd is om zijn leven een nieuwe wending te geven. Diep in de schulden en zonder duidelijk doel voor ogen, keert hij terug naar de schoolbanken, waar hij al snel vriendschap sluit met een kleurrijk groepje buitenstaanders. Allemaal zijn ze op zoek naar een betere toekomst... en snorren ze door de stad op lawaaierige scooters. En Larry wordt verliefd, op de mooie professor Mercedes, die haar passie voor het lesgeven en haar huwelijk kwijtgespeeld lijkt...\n\n\nVertaald door Simply Release Toppers:\nHeksje\nControle+Bewerking: Badgast\n\n\n\n\n\n\nScreenshots:\n &lt;a href=&quot;\nhttp://img853.imageshack.us/img853/6320/screenshot1r.jpg&quot; rel=&quot;nofollow&quot; target=&quot;_NEW&quot;&gt;\nhttp://img853.imageshack.us/img853/6320/screenshot1r.jpg&lt;/a&gt;\n &lt;a href=&quot;\nhttp://img830.imageshack.us/img830/87/screenshot2we.jpg&quot; rel=&quot;nofollow&quot; target=&quot;_NEW&quot;&gt;\nhttp://img830.imageshack.us/img830/87/screenshot2we.jpg&lt;/a&gt;\n &lt;a href=&quot;\nhttp://img692.imageshack.us/img692/6058/screenshot3rs.jpg&quot; rel=&quot;nofollow&quot; target=&quot;_NEW&quot;&gt;\nhttp://img692.imageshack.us/img692/6058/screenshot3rs.jpg&lt;/a&gt;\n &lt;a href=&quot;\nhttp://img84.imageshack.us/img84/1558/screenshot4bb.jpg&quot; rel=&quot;nofollow&quot; target=&quot;_NEW&quot;&gt;\nhttp://img84.imageshack.us/img84/1558/screenshot4bb.jpg&lt;/a&gt;\n\n\n\n\nINFO;\n\n\nVideo\nID                                       : 0\nFormat                                   : MPEG-4 Visual\nFormat profile                           : Advanced Simple@L5\nFormat settings, BVOP                    : 1\nFormat settings, QPel                    : No\nFormat settings, GMC                     : No warppoints\nFormat settings, Matrix                  : Custom\nCodec ID                                 : XVID\nCodec ID/Hint                            : XviD\nDuration                                 : 1h 38mn\nBit rate                                 : 867 Kbps\nWidth                                    : 640 pixels\nHeight                                   : 272 pixels\nDisplay aspect ratio                     : 2.35:1\nFrame rate                               : 23.976 fps\nColor space                              : YUV\nChroma subsampling                       : 4:2:0\nBit depth                                : 8 bits\nScan type                                : Progressive\nCompression mode                         : Lossy\nBits/(Pixel*Frame)                       : 0.208\nStream size                              : 611 MiB (87%)\nWriting library                          : XviD 64\n\nAudio\nID                                       : 1\nFormat                                   : MPEG Audio\nFormat version                           : Version 1\nFormat profile                           : Layer 3\nMode                                     : Joint stereo\nMode extension                           : MS Stereo\nCodec ID                                 : 55\nCodec ID/Hint                            : MP3\nDuration                                 : 1h 38mn\nBit rate mode                            : Variable\nBit rate                                 : 113 Kbps\nNominal bit rate                         : 128 Kbps\nChannel(s)                               : 2 channels\nSampling rate                            : 48.0 KHz\nCompression mode                         : Lossy\nStream size                              : 79.9 MiB (11%)\nAlignment                                : Aligned on interleaves\nInterleave, duration                     : 24 ms (0.58 video frame)\nInterleave, preload duration             : 162 ms\n\n\n\n\n\nDeze film wordt u aangeboden door het DutchReleaseTeam.\nVoor de reviews van de nieuwste films, muziek, series, games etc\nga dan eens naar http://www.hetmultimediacafe.be\n\nDutchReleaseteam = Hardcoded Dutch Subs","torrent":{"xt":"urn:btih:847cdff844c08f32387193e25004fbd5240362dd","amp;dn":"Larry+Crowne+%282011%29+BRRip+NL+subs+DutchReleaseTeam+%5BKomedie%26amp%3B","amp;tr":["udp%3A%2F%2Ftracker.openbittorrent.com%3A80","udp%3A%2F%2Fopen.demonii.com%3A1337","udp%3A%2F%2Ftracker.coppersurfer.tk%3A6969","udp%3A%2F%2Fexodus.desync.com%3A6969"],"infoHash":"847cdff844c08f32387193e25004fbd5240362dd","infoHashBuffer":{"type":"Buffer","data":[132,124,223,248,68,192,143,50,56,113,147,226,80,4,251,213,36,3,98,221]},"announce":[],"urlList":[]}}